Coordinates
version=1
nRows=19
nColumns=33
inDegrees=yes

Units are S.I. units (second, meters, Newtons, ...)
Angles are in degrees.

endheader
time	ground_thorax_rot_x	ground_thorax_rot_y	ground_thorax_rot_z	ground_thorax_tx	ground_thorax_ty	ground_thorax_tz	clav_prot_r	clav_elev_r	scapula_abduction_r	scapula_elevation_r	scapula_upward_rot_r	scapula_winging_r	shoulder_elv_r	plane_of_elev_r	axial_rot_r	elbow_flexion_r	pro_sup_r	wrist_flex_r	wrist_dev_r	clav_prot_l	clav_elev_l	scapula_abduction_l	scapula_elevation_l	scapula_upward_rot_l	scapula_winging_l	shoulder_elv_l	plane_of_elev_l	axial_rot_l	elbow_flexion_l	pro_sup_l	wrist_flex_l	wrist_dev_l	
7.3200	22.796544	33.027185	51.007693	-39.663078	829.543106	-45.173104	13.597284	35.016103	29.037668	45.000000	-45.000000	273.196232	-1367.782771	22.067945	-166.043730	2518.856902	166.433039	14.087330	15.259123	-9.068683	-45.000000	-39.188595	45.000000	-45.000000	3703.373432	-2441.424738	26.385809	33.756083	1067.762161	38.024609	14.720752	-16.375545	
7.3300	22.703696	33.077535	51.187908	-38.281238	828.758178	-45.110249	13.587941	35.046229	29.028836	45.000000	-45.000000	273.293217	-1367.832691	22.057606	-166.138371	2518.866343	166.766728	14.071184	15.222595	-9.143950	-45.000000	-39.125672	45.000000	-45.000000	3703.324732	-2441.501011	26.389916	33.773290	1067.781097	38.249169	14.680440	-16.281745	
7.3400	22.603291	33.130380	51.374108	-36.906708	827.967621	-45.044081	13.582380	35.070047	29.012548	45.000000	-45.000000	273.379359	-1367.884106	22.060750	-166.225938	2518.878396	167.112012	14.050026	15.204449	-9.224342	-45.000000	-39.060046	45.000000	-45.000000	3703.271321	-2441.566551	26.389385	33.790583	1067.794355	38.464824	14.642760	-16.200275	
7.3500	22.502967	33.179917	51.555176	-35.541397	827.172956	-44.974418	13.573119	35.098465	28.998978	45.000000	-45.000000	273.476697	-1367.935898	22.048871	-166.310183	2518.885617	167.463822	14.035770	15.169227	-9.301916	-45.000000	-38.994037	45.000000	-45.000000	3703.222882	-2441.635871	26.391491	33.795665	1067.807375	38.666560	14.598528	-16.120098	
7.3600	22.394175	33.231127	51.744812	-34.186608	826.375914	-44.901501	13.567393	35.118340	28.981784	45.000000	-45.000000	273.560841	-1367.991911	22.053107	-166.382274	2518.901787	167.824391	14.013262	15.158341	-9.385111	-45.000000	-38.931404	45.000000	-45.000000	3703.173847	-2441.697872	26.383010	33.796010	1067.815734	38.848047	14.559443	-16.055390	
7.3700	22.292599	33.278063	51.918161	-32.842949	825.578029	-44.825633	13.559350	35.141342	28.960621	45.000000	-45.000000	273.654105	-1368.043740	22.052449	-166.445691	2518.912999	168.189755	13.996854	15.136104	-9.464438	-45.000000	-38.869084	45.000000	-45.000000	3703.130947	-2441.768487	26.380503	33.785570	1067.822818	39.009389	14.517702	-15.993973	
7.3800	22.186998	33.330100	52.091575	-31.511058	824.780605	-44.746763	13.556915	35.157617	28.930882	45.000000	-45.000000	273.730845	-1368.094958	22.067918	-166.503036	2518.924383	168.562474	13.977165	15.132929	-9.547842	-45.000000	-38.808789	45.000000	-45.000000	3703.083677	-2441.836610	26.375012	33.773918	1067.824552	39.150642	14.480013	-15.943489	
7.3900	22.070017	33.389103	52.281970	-30.191389	823.984134	-44.664079	13.555693	35.172335	28.898884	45.000000	-45.000000	273.818972	-1368.140090	22.064113	-166.561343	2518.935909	168.936316	13.956734	15.112527	-9.631955	-45.000000	-38.746959	45.000000	-45.000000	3703.034697	-2441.900383	26.355514	33.747668	1067.824318	39.275749	14.427194	-15.879082	
7.4000	21.955700	33.447558	52.468240	-28.884555	823.188290	-44.575913	13.551579	35.190644	28.869893	45.000000	-45.000000	273.898372	-1368.185282	22.065319	-166.606641	2518.948253	169.310738	13.937903	15.098222	-9.716367	-45.000000	-38.685802	45.000000	-45.000000	3702.986765	-2441.968953	26.336354	33.715286	1067.820950	39.384232	14.378123	-15.821655	
7.4100	21.842076	33.504863	52.653490	-27.590994	822.391730	-44.479920	13.545980	35.211007	28.840286	45.000000	-45.000000	273.989849	-1368.226322	22.054382	-166.647732	2518.959625	169.683245	13.921588	15.069942	-9.798164	-45.000000	-38.622819	45.000000	-45.000000	3702.942370	-2442.039739	26.314238	33.674628	1067.816138	39.481189	14.322054	-15.755840	
7.4200	21.728150	33.561159	52.836038	-26.311549	821.592746	-44.373604	13.538754	35.234378	28.806011	45.000000	-45.000000	274.079278	-1368.264868	22.046839	-166.680678	2518.968769	170.052940	13.907798	15.038952	-9.879983	-45.000000	-38.557108	45.000000	-45.000000	3702.895727	-2442.111269	26.293463	33.627474	1067.808036	39.568718	14.264733	-15.688894	
7.4300	21.607076	33.620371	53.027394	-25.046867	820.789326	-44.254926	13.532493	35.251024	28.767248	45.000000	-45.000000	274.174694	-1368.301817	22.032821	-166.707161	2518.981583	170.416533	13.889548	15.006654	-9.962543	-45.000000	-38.492948	45.000000	-45.000000	3702.851722	-2442.180382	26.263602	33.571016	1067.796496	39.649869	14.204436	-15.615308	
7.4400	21.487837	33.678348	53.211608	-23.797621	819.979788	-44.122918	13.523691	35.270966	28.722649	45.000000	-45.000000	274.269316	-1368.337102	22.023817	-166.721548	2518.996592	170.770650	13.871786	14.972206	-10.045162	-45.000000	-38.425341	45.000000	-45.000000	3702.807035	-2442.251606	26.235998	33.507001	1067.779892	39.726711	14.145511	-15.540462	
7.4500	21.375674	33.733738	53.379089	-22.564221	819.162989	-43.978027	13.512616	35.286076	28.680753	45.000000	-45.000000	274.360121	-1368.377372	22.017218	-166.727199	2519.013257	171.116866	13.852768	14.951194	-10.126243	-45.000000	-38.361009	45.000000	-45.000000	3702.772164	-2442.330247	26.218211	33.446292	1067.762072	39.802017	14.099666	-15.474514	
7.4600	21.260480	33.789294	53.545506	-21.347160	818.338680	-43.822132	13.501566	35.301748	28.634395	45.000000	-45.000000	274.452217	-1368.416231	22.009633	-166.728211	2519.030965	171.453104	13.832047	14.929497	-10.209718	-45.000000	-38.294903	45.000000	-45.000000	3702.733215	-2442.405915	26.198218	33.382432	1067.745095	39.881211	14.050923	-15.403976	
7.4700	21.146831	33.842679	53.708425	-20.146730	817.507260	-43.658176	13.487907	35.315719	28.591979	45.000000	-45.000000	274.543968	-1368.459054	21.998715	-166.723756	2519.051983	171.776327	13.811302	14.910745	-10.292449	-45.000000	-38.230949	45.000000	-45.000000	3702.700738	-2442.484375	26.178829	33.313262	1067.730359	39.967825	14.005943	-15.334467	
7.4800	21.034416	33.894752	53.869015	-18.963139	816.669539	-43.489520	13.473557	35.332294	28.545382	45.000000	-45.000000	274.636437	-1368.499749	21.987234	-166.711089	2519.072842	172.085179	13.789098	14.893900	-10.377195	-45.000000	-38.166882	45.000000	-45.000000	3702.665269	-2442.562346	26.155119	33.237568	1067.718525	40.066125	13.958561	-15.262642	
7.4900	20.929521	33.943631	54.017639	-17.796836	815.826603	-43.319265	13.458008	35.347228	28.499923	45.000000	-45.000000	274.720908	-1368.542536	21.978239	-166.692932	2519.088282	172.378584	13.769529	14.887307	-10.460171	-45.000000	-38.105599	45.000000	-45.000000	3702.636825	-2442.647542	26.139365	33.160655	1067.714892	40.178251	13.918157	-15.199452	
7.5000	20.816165	33.995744	54.182125	-16.648171	814.979324	-43.149639	13.445055	35.362836	28.445335	45.000000	-45.000000	274.808616	-1368.579072	21.963596	-166.674019	2519.101958	172.652855	13.750523	14.867673	-10.544997	-45.000000	-38.038345	45.000000	-45.000000	3702.601202	-2442.722643	26.110808	33.070927	1067.716883	40.308362	13.864331	-15.125025	
